<mxfile host="app.diagrams.net" modified="2023-11-06T02:52:22.713Z" agent="Mozilla/5.0 (Windows NT 10.0; Win64; x64) AppleWebKit/537.36 (KHTML, like Gecko) Chrome/105.0.0.0 Safari/537.36 Edg/105.0.1343.50" etag="kAC7uqQemezw-mH0hdqO" version="21.8.0" type="github">
  <diagram name="Page-1" id="6133507b-19e7-1e82-6fc7-422aa6c4b21f">
    <mxGraphModel dx="1133" dy="566" grid="1" gridSize="10" guides="1" tooltips="1" connect="1" arrows="1" fold="1" page="1" pageScale="1" pageWidth="1100" pageHeight="850" background="none" math="0" shadow="0">
      <root>
        <mxCell id="0" />
        <mxCell id="1" parent="0" />
        <mxCell id="SYswo4tX_a6Yyu-2x8OO-1" value="" style="rounded=1;whiteSpace=wrap;html=1;shadow=1;fillColor=#77aac2;strokeColor=none;gradientColor=none;" vertex="1" parent="1">
          <mxGeometry x="220" y="180" width="110" height="50" as="geometry" />
        </mxCell>
        <mxCell id="SYswo4tX_a6Yyu-2x8OO-2" value="" style="rounded=1;whiteSpace=wrap;html=1;shadow=1;fillColor=#79d9ce;strokeColor=none;gradientColor=none;" vertex="1" parent="1">
          <mxGeometry x="220" y="250" width="110" height="50" as="geometry" />
        </mxCell>
        <mxCell id="SYswo4tX_a6Yyu-2x8OO-3" value="" style="rounded=1;whiteSpace=wrap;html=1;shadow=1;fillColor=#fcd765;strokeColor=none;gradientColor=none;" vertex="1" parent="1">
          <mxGeometry x="220" y="320" width="110" height="50" as="geometry" />
        </mxCell>
        <mxCell id="SYswo4tX_a6Yyu-2x8OO-4" value="" style="rounded=1;whiteSpace=wrap;html=1;shadow=1;fillColor=#f19a97;strokeColor=none;gradientColor=none;" vertex="1" parent="1">
          <mxGeometry x="220" y="390" width="110" height="50" as="geometry" />
        </mxCell>
        <mxCell id="SYswo4tX_a6Yyu-2x8OO-5" value="" style="rounded=1;whiteSpace=wrap;html=1;shadow=1;fillColor=#696773;strokeColor=none;gradientColor=none;" vertex="1" parent="1">
          <mxGeometry x="220" y="460" width="110" height="50" as="geometry" />
        </mxCell>
        <mxCell id="SYswo4tX_a6Yyu-2x8OO-6" value="" style="rounded=1;whiteSpace=wrap;html=1;shadow=1;fillColor=#eff1f3;strokeColor=none;gradientColor=none;" vertex="1" parent="1">
          <mxGeometry x="220" y="530" width="110" height="50" as="geometry" />
        </mxCell>
      </root>
    </mxGraphModel>
  </diagram>
</mxfile>
